HIERARCHY
ROOT Hips
{
  OFFSET 279.157 85.6768 304.565
  CHANNELS 6 Xposition Yposition Zposition Zrotation Xrotation Yrotation
  JOINT LeftUpLeg
  {
    OFFSET 8.64259 1.95398 -2.38835
    CHANNELS 3 Zrotation Xrotation Yrotation
    JOINT LeftLeg
    {
      OFFSET 43.7702 0 0
      CHANNELS 3 Zrotation Xrotation Yrotation
      JOINT LeftFoot
      {
        OFFSET 40.6238 0 0
        CHANNELS 3 Zrotation Xrotation Yrotation
        JOINT LeftToeBase
        {
          OFFSET 12.7242 0 0
          CHANNELS 3 Zrotation Xrotation Yrotation
          End Site
          {
            OFFSET 0 0 0
          }
        }
      }
    }
  }
  JOINT RightUpLeg
  {
    OFFSET -8.2249 1.95398 -2.59336
    CHANNELS 3 Zrotation Xrotation Yrotation
    JOINT RightLeg
    {
      OFFSET 43.5653 0 0
      CHANNELS 3 Zrotation Xrotation Yrotation
      JOINT RightFoot
      {
        OFFSET 40.6238 0 0
        CHANNELS 3 Zrotation Xrotation Yrotation
        JOINT RightToeBase
        {
          OFFSET 12.7242 0 0
          CHANNELS 3 Zrotation Xrotation Yrotation
          End Site
          {
            OFFSET 0 0 0
          }
        }
      }
    }
  }
  JOINT Spine
  {
    OFFSET 0.165834 0.87714 6.61349
    CHANNELS 3 Zrotation Xrotation Yrotation
    JOINT Spine1
    {
      OFFSET 7.38963 1.71661e-005 0
      CHANNELS 3 Zrotation Xrotation Yrotation
      JOINT Spine2
      {
        OFFSET 11.9445 1.14441e-005 0
        CHANNELS 3 Zrotation Xrotation Yrotation
        JOINT Spine3
        {
          OFFSET 14.7254 4.19617e-005 0
          CHANNELS 3 Zrotation Xrotation Yrotation
          JOINT Spine4
          {
            OFFSET 10.9679 0 0
            CHANNELS 3 Zrotation Xrotation Yrotation
            JOINT RightShoulder
            {
              OFFSET 2.46616 -1.6653 3.69651
              CHANNELS 3 Zrotation Xrotation Yrotation
              JOINT RightArm
              {
                OFFSET 13.0012 0 0
                CHANNELS 3 Zrotation Xrotation Yrotation
                JOINT RightForeArm
                {
                  OFFSET 28.7848 1.52588e-005 0
                  CHANNELS 3 Zrotation Xrotation Yrotation
                  JOINT RightHand
                  {
                    OFFSET 26.5688 1.52588e-005 0
                    CHANNELS 3 Zrotation Xrotation Yrotation
                    End Site
                    {
                      OFFSET 0 0 0
                    }
                  }
                }
              }
            }
            JOINT LeftShoulder
            {
              OFFSET 2.38034 -1.29275 -3.7523
              CHANNELS 3 Zrotation Xrotation Yrotation
              JOINT LeftArm
              {
                OFFSET 16.3182 6.10351e-005 0
                CHANNELS 3 Zrotation Xrotation Yrotation
                JOINT LeftForeArm
                {
                  OFFSET 27.0901 0 0
                  CHANNELS 3 Zrotation Xrotation Yrotation
                  JOINT LeftHand
                  {
                    OFFSET 24.5451 1.52588e-005 0
                    CHANNELS 3 Zrotation Xrotation Yrotation
                    End Site
                    {
                      OFFSET 0 0 0
                    }
                  }
                }
              }
            }
            JOINT Neck
            {
              OFFSET 5.0226 -0.0266342 0
              CHANNELS 3 Zrotation Xrotation Yrotation
              JOINT Head
              {
                OFFSET 6.69364 2.86102e-005 0
                CHANNELS 3 Zrotation Xrotation Yrotation
                End Site
                {
                  OFFSET 0 0 0
                }
              }
            }
          }
        }
      }
    }
  }
}
MOTION
Frames:	11
Frame Time:	0.0416667
-31.6623 93.6464 37.1806 26.6479 19.0333 121.749 -126.484 85.4371 41.5792 -33.9807 12.4441 -10.1419 68.7318 6.5395 0.37565 5.92876 -16.3038 6.65475 141.545 85.1131 125.728 -37.2325 -15.8164 5.25936 67.9961 -5.54441 -2.00727 17.9889 2.6652 4.6609 0.951484 12.3594 -89.8151 2.15025 1.97165 0.401391 -9.51922 1.98741 0.314197 -32.0639 1.75983 0.975554 -12.0513 1.75985 0.975558 44.6817 -18.539 170.049 -94.4988 -16.9504 15.8819 12.7436 18.5319 -20.2022 -13.4588 3.15493 -22.4316 -88.814 -16.045 70.0707 1.2769 -29.6604 -85.3342 12.6526 -5.09645 -6.60948 4.91779 -0.290118 -7.50215 37.2163 -2.04633 1.45801 -11.5211 -2.42597 -2.22521 
-31.7548 93.3666 37.4322 26.5496 19.2805 121.953 -119.462 85.4367 34.7616 -34.4592 12.966 -10.4677 68.9693 6.78605 0.504718 5.44014 -16.6242 6.63292 134.984 85.2782 131.931 -37.9478 -15.63 5.56248 67.6119 -5.49113 -2.84369 19.2032 1.69471 7.38936 0.914081 12.3574 -89.7789 2.1539 1.91101 0.470689 -9.5157 1.92987 0.386087 -32.0594 1.68117 1.02339 -12.0467 1.68118 1.02341 64.952 -8.10156 -175.57 -67.7548 -6.92637 22.5074 7.08739 22.5523 -16.8101 -13.0272 3.01725 -20.6945 -88.257 -15.002 70.8843 1.09909 -29.0899 -85.607 12.6763 -5.11481 -5.27314 5.28276 -0.320931 -7.80568 37.7289 -2.58238 -0.00925254 -12.0027 -2.37385 -0.712007 
-31.769 93.3463 37.7532 26.6975 19.6585 122.154 -121.835 85.273 37.2366 -34.0814 13.1983 -10.5354 67.3985 5.69351 0.512846 8.56802 -13.9527 5.46107 135.217 85.1174 131.622 -38.0392 -15.7488 5.72213 68.0871 -5.65275 -2.38631 18.2301 2.38457 5.57448 0.907966 12.3116 -89.7989 2.24601 1.89127 0.428856 -9.4236 1.90831 0.345171 -31.9673 1.67492 0.97756 -11.9546 1.67493 0.977575 83.4518 1.9402 -151.523 -41.165 15.2422 7.94889 1.67125 30.9184 -11.0717 -11.569 3.35207 -21.8156 -88.6091 -15.6336 70.3523 0.848633 -28.1818 -84.9032 12.4555 -7.19802 -4.58139 4.28566 -0.32508 -8.7931 37.5295 -2.37365 0.885241 -12.0694 -2.52959 -1.45808 
-31.9331 93.4881 38.1025 26.78 19.3206 122.155 -126.162 85.6498 41.8506 -33.2109 13.2968 -10.5973 67.512 5.72265 0.679699 8.57589 -15.1773 7.93836 138.863 85.0627 128.61 -37.0324 -15.4115 5.56202 68.0248 -5.50721 -1.95127 17.4519 2.7996 4.7892 0.925343 12.1173 -89.7348 2.63319 1.95205 0.54565 -9.03636 1.97419 0.459181 -31.58 1.69781 1.10721 -11.5674 1.69781 1.10723 85.771 -10.5141 -128.907 -28.2236 28.3978 -24.2536 0.853439 33.9091 -7.34819 -8.75671 3.41064 -24.4804 -88.686 -15.6632 70.1867 0.637066 -25.6442 -81.5129 11.5164 -12.0226 -4.71411 3.19078 -0.430252 -11.2668 37.6514 -2.21657 1.243 -12.718 -2.50577 -1.84222 
-31.5965 94.055 38.3931 28.6184 21.4721 122.189 -151.776 82.9556 66.8959 -31.2145 13.6865 -10.1709 67.2237 5.3901 0.393254 7.62444 -15.6662 7.66166 156.125 82.174 111.268 -35.7855 -14.9046 5.40614 67.2997 -5.13166 -3.08633 18.5019 2.46086 4.86675 0.881957 12.0498 -89.8099 2.77008 1.8363 0.394361 -8.89958 1.85188 0.313119 -31.4429 1.63286 0.928126 -11.4303 1.63286 0.928129 88.3623 -11.1359 -121.284 -11.3642 27.6507 -36.057 0.536077 30.8002 -6.9147 -10.87 3.49552 -23.7339 -89.1668 -17.4417 69.9341 -0.612495 -20.0054 -77.331 9.69634 -15.7252 -4.58936 4.93898 -0.480331 -10.4654 37.2198 -2.04175 1.6146 -13.5349 -2.45089 -2.30188 
-31.1775 94.744 38.5713 30.8166 22.29 122.01 -167.586 80.2234 82.8468 -29.231 12.5372 -9.31447 65.7705 4.13424 0.758477 9.93932 -13.0363 5.51587 165.838 78.5668 102.819 -33.0243 -12.9209 4.82315 66.4769 -4.32077 -2.15455 19.8069 1.90844 5.59789 0.906073 11.7705 -89.7802 3.32851 1.8975 0.440526 -8.34111 1.91504 0.356555 -30.8848 1.67734 0.990576 -10.8722 1.67734 0.990561 87.6393 -12.7688 -121.798 -4.89857 19.578 -34.7282 2.49158 19.4799 -7.76846 -16.9724 2.78308 -17.4033 -89.3832 -18.9381 70.1581 -2.1587 -12.6862 -71.4727 7.44707 -10.3148 -4.65673 1.94616 -0.264574 -9.05612 35.8901 -1.90005 1.12751 -13.8911 -2.08593 -2.14978 
-30.363 95.6469 38.761 33.6647 24.4745 121.537 -172.996 75.1147 88.3098 -26.3478 13.1234 -9.03604 65.9302 3.85137 -0.114314 8.86368 -15.1679 8.37482 171.006 73.4637 98.2968 -30.3223 -12.2217 4.43106 66.0374 -3.86743 -2.01282 18.755 2.60553 3.87762 0.880123 11.5138 -89.8415 3.84328 1.82239 0.306181 -7.8264 1.83412 0.22566 -30.37 1.64611 0.839873 -10.3574 1.6461 0.839877 87.8802 -13.8276 -120.358 2.90138 9.81115 -33.9235 4.20323 3.65492 -8.59682 -20.4125 2.15748 -16.4799 -90.5768 -22.691 69.2679 -1.26899 -5.68358 -63.9994 4.49435 1.72091 -5.94711 -1.92376 -0.109903 -9.25093 33.5699 -1.75134 0.0962792 -14.1264 -1.58639 -1.22112 
-29.6505 96.3809 38.7438 36.4856 26.8151 120.108 -176.402 69.8837 90.3367 -23.7287 12.361 -7.571 65.1808 2.88317 -0.497569 9.45044 -15.0144 8.88668 173.704 68.5918 95.4061 -28.172 -12.0646 4.0582 65.7678 -3.54572 -2.2323 18.5106 2.54839 4.46934 0.793795 11.125 -89.8273 4.62123 1.65664 0.319504 -7.04869 1.66911 0.246274 -29.5907 1.48402 0.802715 -9.578 1.48401 0.802715 87.5951 -15.6306 -119.697 9.93039 0.936239 -30.4863 5.39383 -4.03329 -9.91528 -22.2279 1.674 -15.1985 -92.0498 -28.5366 68.8437 -0.186673 0.969212 -56.246 1.37845 6.86403 -6.83823 -1.00489 -0.151845 -9.50244 29.7803 -1.86995 -0.812129 -14.1185 -1.44641 -0.161725 
-28.7264 97.096 38.7338 39.7457 28.614 118.745 -178.651 64.5469 91.8149 -21.0383 11.2307 -5.7293 62.8624 0.88259 -0.895128 11.0495 -12.234 5.35166 174.889 63.1697 94.6881 -25.4157 -11.4001 3.68888 65.6159 -3.31874 -1.9549 17.9648 2.67118 4.66713 0.716581 10.6447 -89.8891 5.5831 1.47806 0.181939 -6.087 1.48462 0.116678 -28.628 1.35501 0.617816 -8.6153 1.35502 0.617813 85.9933 -19.0609 -120.993 13.641 -5.34794 -24.5154 6.27866 -6.25875 -11.3658 -22.6167 1.35606 -13.9309 -92.3689 -34.5429 70.5591 -1.22977 6.71759 -48.4617 -0.451101 6.768 -8.32021 -0.568656 -0.180448 -10.0776 25.3315 -0.904019 0.508556 -13.8517 -0.945171 -1.04249 
-27.4469 97.643 38.5027 42.627 30.8614 117.568 -179.766 59.7371 91.8296 -19.8826 11.443 -4.16026 64.3985 1.49517 -1.38291 9.87838 -14.3922 8.24039 176.007 58.486 93.9092 -24.5086 -10.0284 3.05124 66.1648 -3.44735 -1.55129 17.841 2.73605 4.55313 0.611645 10.0707 -90.0683 6.73327 1.19266 -0.181698 -4.93716 1.18348 -0.234041 -27.4766 1.19211 0.185183 -7.46394 1.1921 0.185177 87.7586 -19.1729 -116.924 23.4212 -9.89962 -22.0158 6.58763 -8.40253 -11.2329 -23.5303 1.08086 -12.7481 -92.8943 -39.9617 71.5139 -3.71306 10.1514 -40.7458 -1.2858 3.20631 -8.9192 -1.22137 -0.149818 -10.3998 19.1187 -0.107093 2.51036 -12.4364 -0.77351 -1.24307 
-25.9883 98.2313 37.8488 45.4367 33.5288 116.595 179.723 54.5951 91.3242 -18.4718 12.7193 -2.92201 64.4244 1.5046 -1.29583 11.1342 -14.1279 9.48539 175.922 53.3657 93.5444 -23.2687 -9.0211 3.03506 66.4156 -3.45758 -1.41898 18.4696 2.50868 4.69876 0.475943 9.48211 -90.2953 7.91262 0.821097 -0.626087 -3.75823 0.792741 -0.661626 -26.2952 0.971297 -0.350361 -6.28249 0.971302 -0.350355 85.9574 -23.0924 -118.446 24.9211 -11.2559 -14.2301 6.66039 -6.8948 -12.821 -22.9482 1.35398 -13.9121 -92.2143 -40.5201 72.8001 -9.772 12.4493 -33.9029 -0.819261 3.49543 -9.09068 0.670193 -0.261956 -10.8097 12.8964 0.58499 3.04597 -12.318 -0.294315 1.16161 
